<svg id="Layer_1" data-name="Layer 1" xmlns="http://www.w3.org/2000/svg" viewBox="0 0 573.15 1240.4"><defs><style>.cls-1{fill:#777;}.cls-2{fill:#fe3131;}.cls-3{fill:#ce191f;}.cls-4{fill:#fff;}</style></defs><title>logo</title><path class="cls-1" d="M494.26,520.1l-20.84-45c-.28-.6,1.7-3.12,2-3.54a36.83,36.83,0,0,1,8.19-8.2,64.73,64.73,0,0,1,17.6-9,102.5,102.5,0,0,1,13.33-3.61c3.56-.73,6.35-2,9.46.52a13.3,13.3,0,0,1,4.56,8.58c1.33,10.35-5.23,19.33-10.85,27.26l-12.13,17.1Z"/><path class="cls-1" d="M62.08,849.78l25,41.52c.28.6-4.53,4.71-4.82,5.12a36.87,36.87,0,0,1-8.19,8.21,64.5,64.5,0,0,1-17.59,9,104.3,104.3,0,0,1-13.34,3.62c-3.56.72-6.34,2-9.45-.53a13.22,13.22,0,0,1-4.57-8.58C27.83,897.81,34.39,888.82,40,880.9l12.12-17.1Z"/><path class="cls-2" d="M544,745.7c-1.39,40.57-10.05,80.5-29.17,117.46-28,54-77.18,96.39-134.35,117s-121.76,19.55-178.58-2.1C135.64,952.9,80.27,899.34,55,833.15,23.28,750.22,39.4,656.38,69.93,573A804.46,804.46,0,0,1,295.09,245.37C353,295,402.82,354.46,442.75,419.91q16.38,26.74,30.46,54.82a1.32,1.32,0,0,1,.2.32.81.81,0,0,1,.06.13c.07.17.2.42.36.78a2.62,2.62,0,0,1,.29.58c.52.94,1,1.91,1.45,2.88v0q9.8,19.67,18.35,39.89a6,6,0,0,1,.32.75,744.58,744.58,0,0,1,26.07,71.19C535.59,640.52,545.74,693.62,544,745.7Z"/><path class="cls-3" d="M492.6,462.42a169.53,169.53,0,0,0-19.16,12.15,21,21,0,0,1,2-3,37.82,37.82,0,0,1,8.17-8.2,64.06,64.06,0,0,1,17.61-9,104.3,104.3,0,0,1,13.34-3.62c3.55-.71,6.33-2,9.47.51-.26-.48-12.76,3.59-13.93,3.91A93.1,93.1,0,0,0,492.6,462.42Z"/><path class="cls-1" d="M494.26,520.1l-20.84-45c-.28-.6,1.7-3.12,2-3.54a36.83,36.83,0,0,1,8.19-8.2,64.73,64.73,0,0,1,17.6-9,102.5,102.5,0,0,1,13.33-3.61c3.56-.73,6.35-2,9.46.52a13.3,13.3,0,0,1,4.56,8.58c1.33,10.35-5.23,19.33-10.85,27.26l-12.13,17.1Z"/><path class="cls-4" d="M524,451.21c-.26-.48-12.76,3.59-13.93,3.91a93.1,93.1,0,0,0-17.47,7.3,169.53,169.53,0,0,0-19.16,12.15.63.63,0,0,0-.23.16c-15.7,11.34-30,24.94-44.06,38q-12.4,11.53-24.36,23.52c-10.88,10.85-21.54,22-32.07,33.14-3.85,4.07-22.42,29.95-27.69,29.95H263.66s-19.77-9.79,0-27.07l45.09.58s2.33-7.69-1.71-9.79H257.81l-61.7,60.44s-21.09,3.84-21.48-18.8c0-2.3,68.32-67.81,68.32-67.81l33.79-2.13c15.64-1,37.28,2,49.07-9.53q20.94-20.49,41.9-41c16.6-16.25,33.3-32.57,52-46.42,6-4.46,14.18-11.67,23-17.87,11.63-8.2,24.52-14.7,35.47-11,4,1.35,7.4,3.87,10.69,6.52C495.76,420.91,518.7,440,524,451.21Z"/><path class="cls-4" d="M524,451.21c-.26-.48-12.76,3.59-13.93,3.91a93.1,93.1,0,0,0-17.47,7.3,169.53,169.53,0,0,0-19.16,12.15.63.63,0,0,0-.23.16c-15.7,11.34-30,24.94-44.06,38q-12.4,11.53-24.36,23.52c-10.88,10.85-21.54,22-32.07,33.14-3.85,4.07-22.42,29.95-27.69,29.95H263.66s-19.77-9.79,0-27.07l45.09.58s2.33-7.69-1.71-9.79H257.81l-61.7,60.44s-21.09,3.84-21.48-18.8c0-2.3,68.32-67.81,68.32-67.81l33.79-2.13c15.64-1,37.28,2,49.07-9.53q20.94-20.49,41.9-41c16.6-16.25,33.3-32.57,52-46.42,6-4.46,14.18-11.67,23-17.87,11.63-8.2,24.52-14.7,35.47-11,4,1.35,7.4,3.87,10.69,6.52C495.76,420.91,518.7,440,524,451.21Z"/><path class="cls-4" d="M33.72,916.74c.26.49,12.76-3.58,13.92-3.91a92.8,92.8,0,0,0,17.48-7.3,170.22,170.22,0,0,0,19.15-12.14.66.66,0,0,0,.23-.17c15.7-11.33,30-24.93,44.06-38q12.41-11.53,24.36-23.52c10.89-10.85,21.55-22,32.08-33.14,3.84-4.07,22.42-30,27.68-30h81.38s19.77,9.79,0,27.07l-45.1-.58s-2.33,7.69,1.71,9.79H299.9l61.7-60.44s21.1-3.85,21.49,18.8c0,2.29-68.33,67.8-68.33,67.8L281,833.24c-15.63,1-37.28-2-49.07,9.53q-20.93,20.49-41.9,41c-16.6,16.25-33.3,32.56-52,46.42-6,4.46-14.18,11.66-23,17.86-11.63,8.21-24.52,14.7-35.47,11-4-1.36-7.4-3.88-10.69-6.53C62,947,39,927.92,33.72,916.74Z"/><path d="M255.46,694.41a22.08,22.08,0,0,1-4.84-4.81Z"/><path d="M281.08,655.78l-4.17-2A18.54,18.54,0,0,1,281.08,655.78Z"/><path class="cls-4" d="M335.42,687.73c-2.59,3.87-6.14,6.91-9.44,10.14-3.74,3.65-7.46,7.37-11.17,11.08-5.27,5.2-10.37,10.53-15.86,15.47-1.62,1.46-3,3.14-4.79,4.43-.9.65-1.42.84-1.71.65-.29.19-.8,0-1.71-.65a59.38,59.38,0,0,1-4.81-4.43c-5.49-4.94-10.6-10.27-15.83-15.47-3.75-3.71-7.46-7.43-11.21-11.08-3.3-3.23-6.85-6.27-9.43-10.14a22.52,22.52,0,0,1-2.39-18.87c2.77-8.75,11.11-15.73,20.28-16.12,4.85-.22,9.63,1.26,14.12,3.1a89.82,89.82,0,0,1,8.79,4.23,4.93,4.93,0,0,1,1.64,1.43,4.08,4.08,0,0,1,.55,1.22,3,3,0,0,1,.55-1.22,4.56,4.56,0,0,1,1.62-1.43,88.16,88.16,0,0,1,8.82-4.23c4.49-1.84,9.24-3.32,14.08-3.1,9.21.39,17.54,7.37,20.29,16.12A22.41,22.41,0,0,1,335.42,687.73Z"/></svg>