<svg id="Group_1601" data-name="Group 1601" xmlns="http://www.w3.org/2000/svg" width="40.216" height="42.31" viewBox="0 0 40.216 42.31">
  <g id="Group_1554" data-name="Group 1554">
    <g id="Group_1553" data-name="Group 1553">
      <path id="Path_1231" data-name="Path 1231" d="M759.5,509.034a18.137,18.137,0,0,0-8.067-13.243,17.9,17.9,0,0,0-8.063-2.884c-7.966-1.1-16.227,2.387-19.216,10.153-2.589,6.77-.1,13.341,4.484,18.418,1.69,1.794,1.889,5.277,1.889,7.566v4.683a1.282,1.282,0,0,0,1.393,1.293h16.926a1.234,1.234,0,0,0,1.294-1.194c.1-.9.2-1.695.2-1.695,1-4.38,7.268-.7,8.861-3.385.2-.2.8-1.89.4-1.89-3.685.4-2.89-4.778.3-2.788,1.391.9.4-2.589.4-2.589.5-.2,4.58-.8,2.387-2.885-2.984-2.987-3.382-4.382-3.484-4.681-.3-1.493.4-3.386.3-4.878Z" transform="translate(-723.107 -492.709)" fill="#fe3131" fill-rule="evenodd"/>
      <path id="Path_1232" data-name="Path 1232" d="M753.39,500.932a4.791,4.791,0,0,0-1.492-1.095c-.2-.3-.4-.5-.6-.8-.9-.995-4.777-2.487-6.17-2.785a7.409,7.409,0,0,0-2.59.1,4.7,4.7,0,0,0-4.578.6,4.532,4.532,0,0,0-5.477,1.989,4.767,4.767,0,0,0-3.684,4.284c-1.392.8-2.089,2.984-2.387,4.579-.4,1.792.5,5.972,2.785,6.369,1.4.3-.2,5.676,6.174,4.085h0a1.044,1.044,0,0,0,1.193.3c3.19,3.684,6.074-7.467,5.08-4.88,1.69.9,3.285.2,4.778-.5s2.789-1.392,3.386-3.187a3.23,3.23,0,0,0,3.186-1.592c0-.2.1-.3.2-.5,1.988-1.2,1.59-5.379.2-6.97Z" transform="translate(-722.974 -492.572)" fill="#fff" fill-rule="evenodd"/>
    </g>
  </g>
</svg>
