<svg id="Group_1602" data-name="Group 1602" xmlns="http://www.w3.org/2000/svg" width="42" height="42" viewBox="0 0 42 42">
  <path id="Path_1235" data-name="Path 1235" d="M605.387,741.324h0l12.8,12.865-3.943,4.006a9.073,9.073,0,0,1-12.8-12.863Z" transform="translate(-598.776 -718.862)" fill="#fe3131" fill-rule="evenodd"/>
  <path id="Path_1236" data-name="Path 1236" d="M614.241,710.726a9.073,9.073,0,0,0-12.8,12.863l23.852,23.853a9.089,9.089,0,0,0,12.863,0,9.206,9.206,0,0,0,0-12.863Z" transform="translate(-598.776 -708.109)" fill="#fe3131" fill-rule="evenodd"/>
  <path id="Path_1237" data-name="Path 1237" d="M644.927,727.533h0l-12.866-12.8,4.009-4.009a9.1,9.1,0,0,1,12.863,12.863Z" transform="translate(-609.552 -708.109)" fill="#fe3131" fill-rule="evenodd"/>
  <path id="Path_1238" data-name="Path 1238" d="M653.3,762.558h0a1.66,1.66,0,0,1-2.133,0,1.508,1.508,0,0,1,2.133-2.133,1.662,1.662,0,0,1,0,2.133Z" transform="translate(-615.594 -724.904)" fill="#fff" fill-rule="evenodd"/>
  <path id="Path_1239" data-name="Path 1239" d="M648.678,755h0a1.508,1.508,0,1,1,2.133,0,1.52,1.52,0,0,1-2.133,0Z" transform="translate(-614.79 -722.459)" fill="#fff" fill-rule="evenodd"/>
  <path id="Path_1240" data-name="Path 1240" d="M646.19,747.549h0a1.524,1.524,0,0,1,0-2.134,1.448,1.448,0,0,1,2.07,0,1.415,1.415,0,0,1,0,2.134,1.443,1.443,0,0,1-2.07,0Z" transform="translate(-613.985 -720.046)" fill="#fff" fill-rule="evenodd"/>
  <path id="Path_1241" data-name="Path 1241" d="M645.744,760.072h0a1.508,1.508,0,1,1,0-2.133,1.519,1.519,0,0,1,0,2.133Z" transform="translate(-613.15 -724.1)" fill="#fff" fill-rule="evenodd"/>
  <path id="Path_1242" data-name="Path 1242" d="M641.15,752.545h0a1.509,1.509,0,0,1,2.134-2.134,1.509,1.509,0,0,1-2.134,2.134Z" transform="translate(-612.369 -721.679)" fill="#fff" fill-rule="evenodd"/>
  <path id="Path_1243" data-name="Path 1243" d="M638.289,757.522h0a1.417,1.417,0,0,1-2.134,0,1.446,1.446,0,0,1,0-2.069,1.524,1.524,0,0,1,2.134,0,1.442,1.442,0,0,1,0,2.069Z" transform="translate(-610.736 -723.295)" fill="#fff" fill-rule="evenodd"/>
  <path id="Path_1244" data-name="Path 1244" d="M622.759,741.4h0l-2.976-2.908a6.651,6.651,0,0,1,9.438-9.373l2.908,2.909a6.627,6.627,0,0,1-9.371,9.373Z" transform="translate(-604.965 -714.282)" fill="#fff" fill-rule="evenodd"/>
  <path id="Path_1245" data-name="Path 1245" d="M614.936,726.33h0a1.507,1.507,0,1,1,2.132,0,1.412,1.412,0,0,1-2.132,0Z" transform="translate(-603.867 -713.176)" fill="#fff" fill-rule="evenodd"/>
  <path id="Path_1246" data-name="Path 1246" d="M612.474,718.873h0a1.663,1.663,0,0,1,0-2.134,1.509,1.509,0,1,1,0,2.134Z" transform="translate(-603.085 -710.762)" fill="#fff" fill-rule="evenodd"/>
  <path id="Path_1247" data-name="Path 1247" d="M612.1,731.4h0a1.508,1.508,0,1,1,0-2.133,1.523,1.523,0,0,1,0,2.133Z" transform="translate(-602.257 -714.817)" fill="#fff" fill-rule="evenodd"/>
  <path id="Path_1248" data-name="Path 1248" d="M607.478,723.869h0a1.523,1.523,0,0,1,0-2.134,1.662,1.662,0,0,1,2.134,0,1.509,1.509,0,1,1-2.134,2.134Z" transform="translate(-601.452 -712.395)" fill="#fff" fill-rule="evenodd"/>
  <path id="Path_1249" data-name="Path 1249" d="M604.972,716.391h0a1.417,1.417,0,0,1,0-2.133,1.508,1.508,0,1,1,0,2.133Z" transform="translate(-600.625 -709.958)" fill="#fff" fill-rule="evenodd"/>
  <path id="Path_1250" data-name="Path 1250" d="M620,719.226h0a1.509,1.509,0,0,1,2.133,2.134,1.415,1.415,0,0,1-2.133,0,1.524,1.524,0,0,1,0-2.134Z" transform="translate(-605.507 -711.567)" fill="#fff" fill-rule="evenodd"/>
</svg>
