<svg id="Layer_1" data-name="Layer 1" xmlns="http://www.w3.org/2000/svg" viewBox="0 0 1166.26 636.74"><defs><style>.cls-1{fill:#fe3131;}.cls-2{fill:#777;}.cls-3{fill:#ce191f;}.cls-4{fill:#fff;}</style></defs><title>logo</title><path class="cls-1" d="M445.84,398.63V395a3.09,3.09,0,0,1,.45-1.54,4.4,4.4,0,0,1,1.5-1.47,6.68,6.68,0,0,0,2.93-5.85V296.3a6.48,6.48,0,0,0-2.93-5.86,3.59,3.59,0,0,1-2-3V284c0-1.05.62-1.58,1.88-1.58h23.95a35.07,35.07,0,0,1,11.9,1.95A27,27,0,0,1,493,290a25.84,25.84,0,0,1,6.16,8.94,30.39,30.39,0,0,1,2.21,11.86,38.53,38.53,0,0,1-1.09,9.35,26.92,26.92,0,0,1-3.52,8.18,27.43,27.43,0,0,1-6.39,6.84,38.3,38.3,0,0,1-9.57,5.21q22.75,7.22,22.75,28.84A31.85,31.85,0,0,1,501,382.15a27.79,27.79,0,0,1-6.94,9.73A30.39,30.39,0,0,1,483.49,398a40.58,40.58,0,0,1-13.25,2.1H447.19C446.29,400.06,445.84,399.59,445.84,398.63Zm22.22-62.54q16,0,16-21.77,0-8.79-2.17-14.27a18.54,18.54,0,0,0-2.41-4.24,10.19,10.19,0,0,0-2.92-2.55,11.15,11.15,0,0,0-3.72-1.28,30.59,30.59,0,0,0-4.77-.33Zm0,8.64V391.2a27.48,27.48,0,0,0,7.89-1.27,12.23,12.23,0,0,0,5.48-3.72,16.71,16.71,0,0,0,3.22-6.83,45.18,45.18,0,0,0,1.05-10.63q0-12-4.09-18T468.06,344.73Z"/><path class="cls-1" d="M510.93,392a6.29,6.29,0,0,0,3.23-5.85V296.45a6.33,6.33,0,0,0-2.85-5.78,3.67,3.67,0,0,1-1.95-3.08v-3.3c0-1.15.65-1.73,1.95-1.73h23.42c1.1,0,1.65.53,1.65,1.58v3.45a3.78,3.78,0,0,1-2,3.08,6.67,6.67,0,0,0-2.85,5.78v94.68H538a13.6,13.6,0,0,0,5-.83,9.56,9.56,0,0,0,3.71-2.66,15.7,15.7,0,0,0,2.74-4.77,43.48,43.48,0,0,0,2-7.13c.21-1.06.37-1.87.49-2.44a6.8,6.8,0,0,1,.38-1.28.66.66,0,0,1,.49-.45,8.09,8.09,0,0,1,.82,0H557c1.35,0,2,.55,2,1.65v26.88H511.23c-1.65,0-2.48-.75-2.48-2.25V395C508.75,393.8,509.48,392.8,510.93,392Z"/><path class="cls-1" d="M596.9,281a21.93,21.93,0,0,1,12.54,3.75,29.92,29.92,0,0,1,9.49,11.3A67.39,67.39,0,0,1,625,314.92a146.67,146.67,0,0,1,2.1,26.43q0,30.25-8,45.2t-21.4,15.09a22.91,22.91,0,0,1-12-3,27.5,27.5,0,0,1-8.49-7.88,41.81,41.81,0,0,1-5.52-11.18,91,91,0,0,1-3.19-12.92,118.66,118.66,0,0,1-1.5-13q-.37-6.37-.37-11.41,0-3.6.18-8.18t.72-9.54c.34-3.3.85-6.68,1.5-10.13a80.42,80.42,0,0,1,2.55-10,56.88,56.88,0,0,1,3.83-9.08,32.53,32.53,0,0,1,5.33-7.43,23.29,23.29,0,0,1,7.09-5A21.79,21.79,0,0,1,596.9,281Zm-8.56,103.45q2.77,9.09,8.48,9.09,3.45,0,6.23-4.36a13.43,13.43,0,0,0,1.58-4.24c.45-1.92.85-4.19,1.2-6.79s.65-5.46.9-8.56.46-6.27.64-9.5.33-6.43.45-9.61.21-6.15.27-8.93.08-5.28.11-7.51,0-4,0-5.29a133.46,133.46,0,0,0-1.81-24.25q-1.8-9.47-3.9-12.24a6.53,6.53,0,0,0-5.41-2.71,7,7,0,0,0-5,2.11c-1.46,1.4-2.6,3.9-3.46,7.5a77.78,77.78,0,0,0-1.12,8.08q-.52,5.29-1.05,13.25c-.36,5.3-.6,10.75-.75,16.33s-.23,11.35-.23,17.3Q585.56,375.44,588.34,384.44Z"/><path class="cls-1" d="M666.5,281A21.87,21.87,0,0,1,679,284.74a29.94,29.94,0,0,1,9.5,11.3,67.71,67.71,0,0,1,6.05,18.88,146.67,146.67,0,0,1,2.1,26.43q0,30.25-8,45.2t-21.4,15.09a22.91,22.91,0,0,1-12-3,27.5,27.5,0,0,1-8.49-7.88,41.81,41.81,0,0,1-5.52-11.18A89.63,89.63,0,0,1,638,366.65a118.66,118.66,0,0,1-1.5-13q-.37-6.37-.38-11.41c0-2.4.07-5.13.19-8.18s.37-6.23.71-9.54.86-6.68,1.51-10.13a80.42,80.42,0,0,1,2.55-10,56.88,56.88,0,0,1,3.83-9.08,32.53,32.53,0,0,1,5.33-7.43,23.21,23.21,0,0,1,7.1-5A21.71,21.71,0,0,1,666.5,281Zm-8.56,103.45q2.77,9.09,8.48,9.09,3.45,0,6.23-4.36a13.43,13.43,0,0,0,1.58-4.24c.45-1.92.85-4.19,1.2-6.79s.65-5.46.9-8.56.47-6.27.64-9.5.32-6.43.45-9.61.21-6.15.26-8.93.09-5.28.12-7.51,0-4,0-5.29a134.49,134.49,0,0,0-1.8-24.25q-1.8-9.47-3.9-12.24a6.54,6.54,0,0,0-5.41-2.71,7,7,0,0,0-5,2.11c-1.45,1.4-2.61,3.9-3.46,7.5a77.78,77.78,0,0,0-1.12,8.08c-.35,3.53-.71,7.94-1.05,13.25s-.6,10.75-.75,16.33-.23,11.35-.23,17.3Q655.16,375.44,657.94,384.44Z"/><path class="cls-1" d="M703.89,398.78V395a3.91,3.91,0,0,1,1.87-3,6.92,6.92,0,0,0,2.78-5.85V296.45a7.62,7.62,0,0,0-.64-3.3,5.91,5.91,0,0,0-1.84-2.25c-1.45-1.06-2.17-2.15-2.17-3.31v-3.9c0-.75.57-1.13,1.72-1.13h19.52q16.44,0,27.86,13.44t11.33,44.52c0,4-.19,8.39-.6,13.14a106.85,106.85,0,0,1-2.17,14.23,74.59,74.59,0,0,1-4.36,13.51,35.47,35.47,0,0,1-7.2,10.93q-7.51,7.73-25.46,7.73H705.24C704.34,400.06,703.89,399.64,703.89,398.78Zm33.63-11a12.08,12.08,0,0,0,3.19-4.81,42.91,42.91,0,0,0,2.18-7.32c.57-2.72,1-5.61,1.39-8.67s.6-6,.75-8.9.25-5.54.3-8,.07-4.45.07-6c0-2.95,0-6.33-.11-10.13s-.29-7.66-.64-11.57-.85-7.7-1.5-11.41a47.35,47.35,0,0,0-2.7-9.76,20.3,20.3,0,0,0-2.33-4.28,11.92,11.92,0,0,0-3-2.85,13.23,13.23,0,0,0-3.94-1.73,29.49,29.49,0,0,0-5.34-.82v99.85Q733.4,391.35,737.52,387.75Z"/><path class="cls-1" d="M781.59,296.6Q789.78,281,802.69,281a17.5,17.5,0,0,1,5.55,1,48.09,48.09,0,0,1,6.24,2.63,3.45,3.45,0,0,0,1.35.45,2.74,2.74,0,0,0,1.5-.9,1.77,1.77,0,0,1,1.28-.83h4.28c1,0,1.42.73,1.42,2.18v24.63c0,1.4-.47,2.1-1.42,2.1h-3.31a4.66,4.66,0,0,1-1.27-.15,1.68,1.68,0,0,1-.9-.68,6,6,0,0,1-.72-1.61c-.23-.73-.48-1.69-.78-2.89q-4.51-17.34-12.09-17.35c-3,0-5.24,1.51-6.83,4.51a23.38,23.38,0,0,0-1.85,5.37c-.52,2.22-1,4.67-1.35,7.32s-.67,5.44-.9,8.37-.4,5.76-.52,8.48-.22,5.28-.27,7.66-.07,4.37-.07,6q0,14,.75,24.29a104.31,104.31,0,0,0,2.4,16.93q1.65,6.68,4.4,9.91a8.4,8.4,0,0,0,6.64,3.23q9.46,0,12.39-20.95l8.33.9A58.28,58.28,0,0,1,825.33,382a34.93,34.93,0,0,1-4,9.72,22.43,22.43,0,0,1-6.87,7.17,18.31,18.31,0,0,1-10.29,2.78q-13.89,0-22.37-15.24T773.34,342Q773.34,312.3,781.59,296.6Z"/><path class="cls-1" d="M831.6,395c0-1,.82-2.21,2.47-3.46q2.17-1.72,2.18-5.4V296.45q0-4.05-2.78-5.86a3.49,3.49,0,0,1-1.87-3V284c0-.95.6-1.43,1.8-1.43H872c.7,0,2-.07,4-.22,1.75-.15,2.85-.23,3.3-.23,1.65,0,2.48.45,2.48,1.35v22.08c0,1.15-.11,1.84-.34,2.06s-.86.34-1.91.34h-2.78c-1.15,0-1.83-.7-2-2.1a43.39,43.39,0,0,0-1.16-5.48,26.92,26.92,0,0,0-1.77-4.58q-2.1-4.14-8.63-4.13h-9.46v42.49h3.45c2.11,0,3.58-.42,4.43-1.28s1.8-3.37,3-7.73a19.29,19.29,0,0,1,.71-2.18c.12-.24.44-.37.94-.37H870a1.69,1.69,0,0,1,2,1.88v29.05a1.59,1.59,0,0,1-1.8,1.8h-3.46a3,3,0,0,1-.9-.11,1.34,1.34,0,0,1-.67-.49,4,4,0,0,1-.57-1.2c-.17-.55-.38-1.3-.64-2.25-.3-1.2-.6-2.26-.9-3.19a8.17,8.17,0,0,0-1.2-2.4,4.71,4.71,0,0,0-2-1.54,8.2,8.2,0,0,0-3.23-.53h-3v47.53H863.8q5.72,0,7.81-2.71a18.34,18.34,0,0,0,2.37-4.91q1.31-3.64,3-9.65.83-2.7,2.7-2.7H883a1.66,1.66,0,0,1,1.88,1.87v27H833.4a1.59,1.59,0,0,1-1.8-1.8Z"/><path class="cls-1" d="M890.31,392a6.29,6.29,0,0,0,3.23-5.85V296.45a6.33,6.33,0,0,0-2.86-5.78,3.67,3.67,0,0,1-1.95-3.08v-3.3c0-1.15.65-1.73,1.95-1.73h23.43c1.1,0,1.65.53,1.65,1.58v3.45a3.78,3.78,0,0,1-2,3.08,6.65,6.65,0,0,0-2.86,5.78v94.68h6.38a13.52,13.52,0,0,0,5-.83,9.67,9.67,0,0,0,3.72-2.66,15.91,15.91,0,0,0,2.74-4.77,43.48,43.48,0,0,0,2-7.13c.2-1.06.36-1.87.49-2.44a6.93,6.93,0,0,1,.37-1.28c.13-.27.29-.43.49-.45s.48,0,.83,0h3.53c1.35,0,2,.55,2,1.65v26.88H890.61c-1.65,0-2.48-.75-2.48-2.25V395C888.13,393.8,888.85,392.8,890.31,392Z"/><path class="cls-1" d="M945.42,392a6.29,6.29,0,0,0,3.23-5.85V296.45a6.33,6.33,0,0,0-2.86-5.78,3.67,3.67,0,0,1-1.95-3.08v-3.3c0-1.15.65-1.73,1.95-1.73h23.43c1.1,0,1.65.53,1.65,1.58v3.45a3.78,3.78,0,0,1-2,3.08,6.65,6.65,0,0,0-2.86,5.78v94.68h6.38a13.52,13.52,0,0,0,5-.83,9.67,9.67,0,0,0,3.72-2.66,15.91,15.91,0,0,0,2.74-4.77,43.48,43.48,0,0,0,1.95-7.13c.2-1.06.36-1.87.49-2.44a6.93,6.93,0,0,1,.37-1.28c.13-.27.29-.43.49-.45s.48,0,.83,0h3.53c1.35,0,2,.55,2,1.65v26.88H945.72c-1.66,0-2.48-.75-2.48-2.25V395C943.24,393.8,944,392.8,945.42,392Z"/><path class="cls-1" d="M1007.81,289.77q6.23-8,15.24-8a20.91,20.91,0,0,1,8.86,2.32,10.25,10.25,0,0,0,2.85,1.06,3.27,3.27,0,0,0,1.65-.61,4.16,4.16,0,0,1,2.25-.52h2.78c1.45,0,2.18.67,2.18,2v24.85c0,1.25-.55,1.87-1.65,1.87h-3.46a1.92,1.92,0,0,1-1.72-.75c-.35-.5-.86-2.3-1.51-5.4q-3.45-16.29-11.48-16.3a7.89,7.89,0,0,0-3.87,1,9.43,9.43,0,0,0-3,2.63,12.41,12.41,0,0,0-1.92,3.79,15,15,0,0,0-.67,4.54,20.21,20.21,0,0,0,1.42,7.51,36.9,36.9,0,0,0,3.65,6.91,55.48,55.48,0,0,0,4.88,6.27q2.65,3,5.21,5.59,4.44,4.5,8.23,9.09a62.74,62.74,0,0,1,6.53,9.53,48.51,48.51,0,0,1,4.28,10.55,46.16,46.16,0,0,1,1.53,12.2q0,14.42-7.43,23.2-7.58,8.94-17.79,8.93a29,29,0,0,1-10.74-2.4,9.37,9.37,0,0,0-2.77-.83,4.11,4.11,0,0,0-2,.75,2.7,2.7,0,0,1-1.42.53h-3.76c-1.25,0-1.88-.68-1.88-2v-28.3c0-1.9.68-2.85,2-2.85h3.23c.95,0,1.53.27,1.73.82s.57,2.61,1.12,6q3,19.67,14,19.67a9.76,9.76,0,0,0,5.71-1.62,12.91,12.91,0,0,0,3.79-4.09,17.83,17.83,0,0,0,2.1-5.48,27.82,27.82,0,0,0-.82-14.83,38.83,38.83,0,0,0-3.87-8,59.39,59.39,0,0,0-5.44-7.28q-3-3.49-6.2-6.72-3.75-3.9-7.09-7.7a52.94,52.94,0,0,1-5.82-7.92,38.94,38.94,0,0,1-3.9-8.89,36.77,36.77,0,0,1-1.43-10.55Q1001.5,297.73,1007.81,289.77Z"/><path class="cls-2" d="M332.57,271.82l-9.69-20.95c-.13-.28.79-1.45.93-1.64a17.21,17.21,0,0,1,3.8-3.82,30.35,30.35,0,0,1,8.19-4.19,48.91,48.91,0,0,1,6.2-1.68c1.65-.34,2.95-.92,4.4.24a6.16,6.16,0,0,1,2.12,4c.62,4.81-2.43,9-5,12.67l-5.64,7.95Z"/><path class="cls-2" d="M131.58,425.15l11.64,19.31c.13.27-2.11,2.18-2.24,2.38a16.8,16.8,0,0,1-3.81,3.81,30,30,0,0,1-8.18,4.2,49.51,49.51,0,0,1-6.21,1.68c-1.65.34-3,.92-4.39-.25a6.15,6.15,0,0,1-2.13-4c-.61-4.81,2.44-9,5-12.67l5.64-7.95Z"/><path class="cls-1" d="M355.69,376.74c-.65,18.87-4.68,37.44-13.57,54.63a114.93,114.93,0,0,1-62.48,54.43,120.61,120.61,0,0,1-83.06-1c-30.8-11.72-56.55-36.63-68.31-67.41-14.74-38.57-7.24-82.21,6.95-121A374.18,374.18,0,0,1,239.94,144.05a340.46,340.46,0,0,1,68.68,81.17q7.61,12.43,14.16,25.5a.38.38,0,0,1,.09.15s0,0,0,.06l.17.36a1.74,1.74,0,0,1,.14.27c.24.43.46.89.67,1.34h0q4.56,9.15,8.53,18.56a2.47,2.47,0,0,1,.15.34,345.55,345.55,0,0,1,12.13,33.11C351.8,327.82,356.51,352.52,355.69,376.74Z"/><path class="cls-3" d="M331.8,245a78.75,78.75,0,0,0-8.91,5.65,9.34,9.34,0,0,1,.92-1.41,17.65,17.65,0,0,1,3.8-3.82,30.21,30.21,0,0,1,8.19-4.19,50.64,50.64,0,0,1,6.2-1.68c1.65-.33,2.94-.92,4.4.24-.12-.23-5.93,1.67-6.47,1.82A42.84,42.84,0,0,0,331.8,245Z"/><path class="cls-2" d="M332.57,271.82l-9.69-20.95c-.13-.28.79-1.45.93-1.64a17.21,17.21,0,0,1,3.8-3.82,30.35,30.35,0,0,1,8.19-4.19,48.91,48.91,0,0,1,6.2-1.68c1.65-.34,2.95-.92,4.4.24a6.16,6.16,0,0,1,2.12,4c.62,4.81-2.43,9-5,12.67l-5.64,7.95Z"/><path class="cls-4" d="M346.4,239.78c-.12-.23-5.93,1.67-6.47,1.82A42.84,42.84,0,0,0,331.8,245a78.75,78.75,0,0,0-8.91,5.65.31.31,0,0,0-.11.08c-7.3,5.27-13.95,11.6-20.49,17.65q-5.76,5.37-11.33,10.94c-5.06,5.05-10,10.21-14.92,15.41-1.78,1.9-10.42,13.93-12.87,13.93H225.32s-9.19-4.55,0-12.59l21,.27s1.08-3.58-.8-4.55H222.6l-28.69,28.11s-9.81,1.79-10-8.75c0-1.06,31.77-31.53,31.77-31.53l15.72-1c7.27-.45,17.34.91,22.82-4.43q9.74-9.54,19.49-19.07c7.72-7.56,15.49-15.14,24.18-21.59,2.81-2.07,6.6-5.42,10.72-8.31,5.41-3.81,11.4-6.83,16.49-5.12a16.94,16.94,0,0,1,5,3C333.27,225.69,343.94,234.58,346.4,239.78Z"/><path class="cls-4" d="M346.4,239.78c-.12-.23-5.93,1.67-6.47,1.82A42.84,42.84,0,0,0,331.8,245a78.75,78.75,0,0,0-8.91,5.65.31.31,0,0,0-.11.08c-7.3,5.27-13.95,11.6-20.49,17.65q-5.76,5.37-11.33,10.94c-5.06,5.05-10,10.21-14.92,15.41-1.78,1.9-10.42,13.93-12.87,13.93H225.32s-9.19-4.55,0-12.59l21,.27s1.08-3.58-.8-4.55H222.6l-28.69,28.11s-9.81,1.79-10-8.75c0-1.06,31.77-31.53,31.77-31.53l15.72-1c7.27-.45,17.34.91,22.82-4.43q9.74-9.54,19.49-19.07c7.72-7.56,15.49-15.14,24.18-21.59,2.81-2.07,6.6-5.42,10.72-8.31,5.41-3.81,11.4-6.83,16.49-5.12a16.94,16.94,0,0,1,5,3C333.27,225.69,343.94,234.58,346.4,239.78Z"/><path class="cls-4" d="M118.38,456.29c.12.22,5.94-1.67,6.48-1.82a43.15,43.15,0,0,0,8.13-3.4,78,78,0,0,0,8.9-5.64.31.31,0,0,0,.11-.08c7.3-5.27,14-11.6,20.49-17.65q5.77-5.37,11.33-10.94c5.06-5.05,10-10.22,14.92-15.41,1.79-1.9,10.43-13.93,12.88-13.93h37.84s9.2,4.55,0,12.59l-21-.27s-1.08,3.57.79,4.55h22.9l28.7-28.11s9.81-1.79,10,8.74c0,1.07-31.78,31.54-31.78,31.54l-15.71,1c-7.28.45-17.34-.92-22.83,4.43L191.07,441c-7.72,7.56-15.49,15.14-24.19,21.59-2.81,2.07-6.6,5.42-10.71,8.31-5.41,3.81-11.41,6.83-16.5,5.12a16.59,16.59,0,0,1-5-3C131.51,470.38,120.85,461.49,118.38,456.29Z"/><path d="M221.51,352.89a10.39,10.39,0,0,1-2.25-2.24Z"/><path d="M233.43,334.92l-1.94-.92A8.86,8.86,0,0,1,233.43,334.92Z"/><path class="cls-4" d="M258.7,349.78a31.62,31.62,0,0,1-4.39,4.72c-1.74,1.69-3.47,3.42-5.2,5.15-2.45,2.42-4.82,4.9-7.37,7.2-.76.67-1.42,1.45-2.23,2-.42.3-.66.39-.79.3-.14.09-.38,0-.8-.3a29.11,29.11,0,0,1-2.24-2c-2.55-2.3-4.93-4.78-7.36-7.2-1.74-1.73-3.47-3.46-5.21-5.15a31.11,31.11,0,0,1-4.39-4.72,10.5,10.5,0,0,1-1.11-8.78,10.8,10.8,0,0,1,9.43-7.49,15.51,15.51,0,0,1,6.57,1.44,41.37,41.37,0,0,1,4.08,2,2.25,2.25,0,0,1,.77.66,2,2,0,0,1,.26.57,1.38,1.38,0,0,1,.25-.57,2.07,2.07,0,0,1,.75-.66,41.7,41.7,0,0,1,4.1-2,15.45,15.45,0,0,1,6.55-1.44,10.76,10.76,0,0,1,9.44,7.49A10.43,10.43,0,0,1,258.7,349.78Z"/></svg>