<svg xmlns="http://www.w3.org/2000/svg" width="25.241" height="42" viewBox="0 0 25.241 42">
  <path id="odnoklassniki" d="M12.732,21.258a10.252,10.252,0,0,1-7.524-3.117,10.224,10.224,0,0,1-3.117-7.5A10.252,10.252,0,0,1,5.208,3.117,10.252,10.252,0,0,1,12.732,0a10.252,10.252,0,0,1,7.524,3.117,10.252,10.252,0,0,1,3.117,7.524,10.225,10.225,0,0,1-3.117,7.5A10.248,10.248,0,0,1,12.732,21.258Zm0-15.867A5.033,5.033,0,0,0,9.041,6.927a5.06,5.06,0,0,0-1.535,3.715,5.033,5.033,0,0,0,1.535,3.691,5.029,5.029,0,0,0,3.691,1.534,5.039,5.039,0,0,0,3.691-1.535,5.025,5.025,0,0,0,1.534-3.69,5.06,5.06,0,0,0-1.535-3.715,5.032,5.032,0,0,0-3.69-1.535ZM24.99,22.547a3.4,3.4,0,0,1,.351,1.16,2.209,2.209,0,0,1-.105.95,2.618,2.618,0,0,1-.621.9,8.1,8.1,0,0,1-1,.867q-.527.387-1.442.973a17.112,17.112,0,0,1-7.383,2.2l1.712,1.687,6.258,6.258a2.408,2.408,0,0,1,.7,1.735,2.33,2.33,0,0,1-.7,1.712l-.281.3a2.491,2.491,0,0,1-3.47,0q-1.57-1.594-6.258-6.281L6.5,41.3a2.408,2.408,0,0,1-1.735.7,2.33,2.33,0,0,1-1.711-.7l-.281-.3a2.292,2.292,0,0,1-.727-1.712,2.368,2.368,0,0,1,.727-1.735l6.258-6.258L10.715,29.6a17.083,17.083,0,0,1-7.429-2.2q-.914-.586-1.441-.973a8.1,8.1,0,0,1-1-.867,2.618,2.618,0,0,1-.621-.9,2.209,2.209,0,0,1-.1-.95,3.4,3.4,0,0,1,.351-1.16,2.533,2.533,0,0,1,.657-.82,2.71,2.71,0,0,1,.985-.516,2.372,2.372,0,0,1,1.313.047,4.44,4.44,0,0,1,1.524.82q.117.093.351.258t1.008.574a12.7,12.7,0,0,0,1.617.715,14.848,14.848,0,0,0,2.156.562,14.027,14.027,0,0,0,6.727-.339,11.11,11.11,0,0,0,2.812-1.184l.89-.586a4.44,4.44,0,0,1,1.524-.82,2.372,2.372,0,0,1,1.313-.047,2.71,2.71,0,0,1,.985.516,2.533,2.533,0,0,1,.657.82Z" transform="translate(-0.112)" fill="#fe3131"/>
</svg>
