<svg xmlns="http://www.w3.org/2000/svg" width="39.867" height="42" viewBox="0 0 39.867 42">
  <path id="Path_1278" data-name="Path 1278" d="M403.333,280.333a11.629,11.629,0,0,0,6.914-3.876,1.365,1.365,0,0,0,.387-1.163,19.7,19.7,0,0,0,4.459-11.566c0-5.492-2.65-6.074-6.979-6.978h-.064a1.587,1.587,0,0,0-1.422-.905,1.616,1.616,0,0,0-1.679,1.615,1.555,1.555,0,0,0,1.679,1.487,1.737,1.737,0,0,0,.971-.324h0c4.264.9,5.427,1.163,5.427,5.105,0,3.1-1.616,7.3-4.007,10.338a1.379,1.379,0,0,0-1.1.516c-1.293,1.293-3.231,2.909-5.622,2.909-2.325,0-4.329-1.616-5.555-2.909a1.766,1.766,0,0,0-1.1-.516c-2.391-3.036-4.007-7.236-4.007-10.338,0-3.942,1.1-4.2,5.365-5.105h0a1.945,1.945,0,0,0,1.033.324,1.593,1.593,0,0,0,1.678-1.487,1.655,1.655,0,0,0-1.678-1.615,1.689,1.689,0,0,0-1.487.905h0c-4.394.9-7.043,1.486-7.043,6.978a20.14,20.14,0,0,0,4.523,11.63,1.457,1.457,0,0,0,.325,1.1,11.508,11.508,0,0,0,6.783,3.876l-.065,6.914c0,4.782-4.136,8.659-9.24,8.659s-9.3-3.877-9.3-8.659v-6.073a5.955,5.955,0,0,0,5.233-5.751,6.285,6.285,0,0,0-12.535,0,5.955,5.955,0,0,0,5.234,5.751v6.073c0,5.88,5.1,10.6,11.371,10.6s11.373-4.717,11.373-10.6v-6.914Z" transform="translate(-375.227 -255.845)" fill="#fe3131" fill-rule="evenodd"/>
</svg>
